<?xml version="1.0" encoding="utf-8"?>
<!-- Generator: Adobe Illustrator 19.2.1, SVG Export Plug-In . SVG Version: 6.00 Build 0)  -->
<svg version="1.1" id="レイヤー_1" xmlns="http://www.w3.org/2000/svg" xmlns:xlink="http://www.w3.org/1999/xlink" x="0px"
	 y="0px" viewBox="0 0 180 22" style="enable-background:new 0 0 180 22;" xml:space="preserve">
<style type="text/css">
	.st0{fill:#F3F3F3;}
</style>
<g>
	<g>
		<path class="st0" d="M9.9,17.9V4.1h2.9c1.4,0,2.5,0.1,3.3,0.4c0.9,0.3,1.6,0.7,2.3,1.4c1.4,1.3,2.1,3,2.1,5.1s-0.7,3.8-2.2,5.1
			c-0.7,0.7-1.5,1.1-2.3,1.4s-1.8,0.4-3.2,0.4H9.9z M11.9,15.9h0.9c0.9,0,1.7-0.1,2.3-0.3s1.2-0.5,1.7-1c1-0.9,1.5-2.1,1.5-3.6
			s-0.5-2.7-1.5-3.7c-0.9-0.8-2.2-1.3-4-1.3h-0.9V15.9z"/>
	</g>
	<g>
		<path class="st0" d="M33.9,6.1h-5.5v3.3h5.3v1.9h-5.3v4.6h5.5v1.9h-7.6V4.1h7.6V6.1z"/>
	</g>
	<g>
		<path class="st0" d="M47.6,6.2l-1.7,1c-0.3-0.5-0.6-0.9-0.9-1.1c-0.3-0.2-0.7-0.3-1.1-0.3c-0.6,0-1.1,0.2-1.4,0.5
			c-0.4,0.3-0.6,0.7-0.6,1.2c0,0.7,0.5,1.2,1.5,1.6l1.4,0.6c1.1,0.4,1.9,1,2.4,1.6s0.8,1.4,0.8,2.4c0,1.3-0.4,2.3-1.3,3.1
			c-0.8,0.8-1.9,1.2-3.2,1.2c-1.2,0-2.2-0.4-2.9-1.1c-0.8-0.7-1.2-1.7-1.4-3l2.1-0.5c0.1,0.8,0.3,1.4,0.5,1.7c0.4,0.6,1,0.9,1.9,0.9
			c0.6,0,1.2-0.2,1.6-0.6s0.6-1,0.6-1.6c0-0.3,0-0.5-0.1-0.7s-0.2-0.4-0.3-0.6c-0.2-0.2-0.4-0.4-0.6-0.5c-0.2-0.2-0.5-0.3-0.9-0.5
			L42.6,11c-1.9-0.8-2.8-2-2.8-3.5c0-1,0.4-1.9,1.2-2.6s1.8-1,2.9-1C45.5,3.9,46.8,4.6,47.6,6.2z"/>
	</g>
	<g>
		<path class="st0" d="M55.8,4.1v13.7h-2.1V4.1H55.8z"/>
	</g>
	<g>
		<path class="st0" d="M69.5,10.7h5.7v0.5c0,1-0.1,1.9-0.4,2.7c-0.2,0.7-0.6,1.4-1.2,2.1c-1.3,1.4-2.9,2.1-4.9,2.1
			c-1.9,0-3.6-0.7-4.9-2.1c-1.4-1.4-2.1-3.1-2.1-5c0-2,0.7-3.7,2.1-5.1c1.4-1.4,3.1-2.1,5.1-2.1c1.1,0,2.1,0.2,3,0.7
			c0.9,0.4,1.8,1.1,2.6,2.1L73,8.1c-1.1-1.5-2.5-2.2-4.1-2.2c-1.5,0-2.7,0.5-3.6,1.5c-1,1-1.5,2.2-1.5,3.7s0.5,2.8,1.6,3.8
			c1,0.9,2.1,1.4,3.3,1.4c1,0,1.9-0.3,2.7-1c0.8-0.7,1.3-1.5,1.4-2.5h-3.4L69.5,10.7L69.5,10.7z"/>
	</g>
	<g>
		<path class="st0" d="M81,17.9V3.2l10,10.5V4.1h2.1v14.5l-10-10.4v9.6L81,17.9L81,17.9z"/>
	</g>
</g>
<g>
	<g>
		<path class="st0" d="M105.1,9.6v4.1h0.5c0.3,0,0.6,0.1,0.7,0.2c0.1,0.1,0.2,0.3,0.2,0.5s-0.1,0.4-0.2,0.5s-0.4,0.2-0.7,0.2h-1.8
			c-0.3,0-0.6-0.1-0.7-0.2c-0.1-0.1-0.2-0.3-0.2-0.5s0.1-0.4,0.2-0.5s0.4-0.2,0.6-0.2V8.3c-0.2,0-0.4-0.1-0.6-0.2
			C103,7.9,103,7.8,103,7.6c0-0.2,0.1-0.4,0.2-0.5s0.4-0.2,0.7-0.2h1.5l1.9,4.2l1.9-4.2h1.5c0.3,0,0.6,0.1,0.7,0.2s0.2,0.3,0.2,0.5
			s-0.1,0.3-0.2,0.5c-0.1,0.1-0.3,0.2-0.5,0.2v5.4c0.3,0,0.5,0.1,0.6,0.2c0.1,0.1,0.2,0.3,0.2,0.5s-0.1,0.4-0.2,0.5
			s-0.4,0.2-0.7,0.2H109c-0.3,0-0.6-0.1-0.7-0.2c-0.1-0.1-0.2-0.3-0.2-0.5s0.1-0.4,0.2-0.5s0.4-0.2,0.7-0.2h0.5V9.6l-1.6,3.6h-1.2
			L105.1,9.6z"/>
	</g>
	<g>
		<path class="st0" d="M116.6,11.7v2h3.5V13c0-0.3,0.1-0.6,0.2-0.7c0.1-0.1,0.3-0.2,0.5-0.2s0.4,0.1,0.5,0.2
			c0.1,0.1,0.2,0.4,0.2,0.7v2.1H115c-0.3,0-0.6-0.1-0.7-0.2c-0.1-0.1-0.2-0.3-0.2-0.5s0.1-0.4,0.2-0.5s0.4-0.2,0.7-0.2h0.2V8.3H115
			c-0.3,0-0.6-0.1-0.7-0.2c-0.1-0.1-0.2-0.3-0.2-0.5s0.1-0.4,0.2-0.5s0.4-0.2,0.7-0.2h6.2V9c0,0.3-0.1,0.6-0.2,0.7
			c-0.1,0.1-0.3,0.2-0.5,0.2s-0.4-0.1-0.5-0.2c-0.1-0.1-0.2-0.4-0.2-0.7V8.3h-3.2v2h1.2c0-0.4,0-0.6,0.1-0.7
			c0.1-0.2,0.3-0.3,0.6-0.3c0.2,0,0.4,0.1,0.5,0.2c0.1,0.1,0.2,0.4,0.2,0.7v1.6c0,0.3,0,0.5-0.1,0.6c-0.1,0.2-0.3,0.3-0.6,0.3
			c-0.3,0-0.5-0.1-0.6-0.3c-0.1-0.1-0.1-0.3-0.1-0.7C117.8,11.7,116.6,11.7,116.6,11.7z"/>
	</g>
	<g>
		<path class="st0" d="M126.7,9.6v4.1h0.5c0.3,0,0.6,0.1,0.7,0.2c0.1,0.1,0.2,0.3,0.2,0.5s-0.1,0.4-0.2,0.5s-0.4,0.2-0.7,0.2h-1.8
			c-0.3,0-0.6-0.1-0.7-0.2c-0.1-0.1-0.2-0.3-0.2-0.5s0.1-0.4,0.2-0.5s0.4-0.2,0.6-0.2V8.3c-0.2,0-0.4-0.1-0.6-0.2
			c-0.1-0.1-0.2-0.3-0.2-0.5s0.1-0.4,0.2-0.5s0.4-0.2,0.7-0.2h1.5l1.9,4.2l1.9-4.2h1.5c0.3,0,0.6,0.1,0.7,0.2
			c0.1,0.1,0.2,0.3,0.2,0.5s-0.1,0.3-0.2,0.5c-0.1,0.1-0.3,0.2-0.5,0.2v5.4c0.3,0,0.5,0.1,0.6,0.2c0.1,0.1,0.2,0.3,0.2,0.5
			s-0.1,0.4-0.2,0.5c-0.1,0.1-0.4,0.2-0.7,0.2h-1.8c-0.3,0-0.6-0.1-0.7-0.2c-0.1-0.1-0.2-0.3-0.2-0.5s0.1-0.4,0.2-0.5
			s0.4-0.2,0.7-0.2h0.5V9.6l-1.6,3.6h-1.2L126.7,9.6z"/>
	</g>
	<g>
		<path class="st0" d="M143.5,11c0,1.2-0.4,2.3-1.2,3.1s-1.7,1.2-2.7,1.2c-0.9,0-1.8-0.3-2.5-1c-0.9-0.8-1.4-1.9-1.4-3.3
			s0.5-2.4,1.4-3.3c0.7-0.7,1.6-1,2.5-1c1,0,1.9,0.4,2.7,1.2S143.5,9.8,143.5,11z M142.1,11c0-0.8-0.3-1.5-0.8-2.1s-1.1-0.8-1.7-0.8
			c-0.6,0-1.2,0.3-1.7,0.8c-0.5,0.6-0.8,1.2-0.8,2.1s0.3,1.5,0.8,2.1s1.1,0.8,1.7,0.8c0.6,0,1.2-0.3,1.7-0.8
			C141.9,12.5,142.1,11.8,142.1,11z"/>
	</g>
</g>
<g>
	<rect x="100" y="2" class="st0" width="46.3" height="1.2"/>
</g>
<g>
	<rect x="100" y="18.8" class="st0" width="46.3" height="1.2"/>
</g>
<g>
	<path class="st0" d="M160.6,1.2c-5.4,0-9.8,4.4-9.8,9.8s4.4,9.8,9.8,9.8s9.8-4.4,9.8-9.8C170.4,5.6,166,1.2,160.6,1.2z M159.1,13.5
		v1h-3.9v-0.9l2.7-3.5c0.1-0.1,0.2-0.3,0.2-0.4c0-0.1,0-0.2,0-0.3c0-0.3-0.1-0.5-0.2-0.7c-0.2-0.2-0.4-0.3-0.7-0.3s-0.5,0.1-0.7,0.3
		s-0.3,0.4-0.3,0.8h-1c0-0.6,0.2-1.1,0.6-1.5c0.4-0.4,0.8-0.6,1.3-0.6c0.6,0,1.1,0.2,1.4,0.6c0.4,0.4,0.6,0.9,0.6,1.4
		s-0.1,0.9-0.4,1.2l-2.2,2.8L159.1,13.5z M161.1,14.5h-1v-1h1V14.5z M165.9,12.5c0,0.6-0.2,1.1-0.6,1.5c-0.4,0.3-0.8,0.5-1.4,0.5
		c-0.5,0-1-0.2-1.3-0.5c-0.4-0.4-0.6-0.9-0.6-1.5V9.4c0-0.7,0.2-1.2,0.6-1.5c0.4-0.3,0.8-0.5,1.3-0.5s1,0.2,1.4,0.5
		c0.4,0.4,0.6,0.9,0.6,1.5V12.5z"/>
	<path class="st0" d="M164,8.4c-0.6,0-1,0.4-1,1.1v3c0,0.7,0.3,1.1,1,1.1c0.6,0,0.9-0.4,1-1.1v-3C164.9,8.8,164.6,8.4,164,8.4z"/>
</g>
</svg>
